<svg version="1.1" id="Layer_1" xmlns="http://www.w3.org/2000/svg" x="0px" y="0px" width="90%" height="90%" viewBox="0 0 79.7 91">
                    <path fill="#FEFEFE" d="M73.4,19.1L45.2,2.4c-3.3-2-7.5-2-10.8,0L6.2,19.1c-3.4,2-5.5,5.7-5.5,9.7v33.4c0,4,2,7.6,5.4,9.7l28.2,16.7
                    	c3.3,2,7.5,2,10.8,0l28.2-16.7c3.4-2,5.5-5.7,5.4-9.7V28.8C78.8,24.8,76.7,21.2,73.4,19.1z"></path>
                    <path fill="#3E474A" d="M35.3,87.6l-28.6-17c-2.8-1.7-4.6-4.8-4.5-8.1v-34c0-3.3,1.7-6.4,4.5-8.1l28.6-17c2.8-1.6,6.2-1.6,9,0l28.6,17
                    	c2.4,1.4,4,3.8,4.4,6.6c-1-2-3.1-2.6-5.6-1.1L44.7,42.6c-3.4,2-5.9,4.2-5.9,8.3v33.4c0,2.4,1,4,2.5,4.5
                    	C39.2,89.1,37.1,88.7,35.3,87.6 M73.9,18.7l-28.6-17c-3.4-2-7.6-2-11,0l-28.6,17c-3.5,2.1-5.6,5.8-5.6,9.8v34c0,4,2.1,7.8,5.5,9.8
                    	l28.6,17c3.4,2,7.6,2,11,0l28.6-17c3.4-2.1,5.5-5.8,5.5-9.8v-34C79.4,24.5,77.3,20.7,73.9,18.7"></path>
                    <path fill="#47B353" d="M66.4,65.8L59.3,70c-0.2,0.1-0.3,0.3-0.3,0.5v1.9c0,0.2,0.2,0.3,0.3,0.2l7.2-4.4c0.2-0.1,0.3-0.3,0.2-0.6V66
                    	C66.8,65.8,66.6,65.7,66.4,65.8"></path>
                    <path fill="#FEFEFE" d="M51.3,50.1c0.2-0.1,0.4,0,0.4,0.3v2.5c0.9-0.4,1.8-0.5,2.7-0.3c0.2,0,0.2,0.3,0.2,0.6l-0.5,2.2
                    	c0,0.2-0.1,0.3-0.2,0.4c0,0-0.1,0.1-0.1,0.1c-0.1,0-0.1,0-0.2,0c-0.9-0.2-1.8,0-2.6,0.4c-1.2,0.5-2,1.7-2,2.9c0,1.1,0.6,1.5,2.6,1.5
                    	c2.7,0,3.8,1.2,3.8,3.9c-0.1,2.8-1.3,5.4-3.5,7.2v2.4c0,0.3-0.2,0.6-0.4,0.8L50,75.8c-0.2,0.1-0.4,0-0.4-0.3V73
                    	c-1,0.5-2.2,0.6-3.3,0.3c-0.2-0.1-0.2-0.3-0.2-0.5l0.5-2.2c0-0.2,0.1-0.3,0.3-0.5c0,0,0.1-0.1,0.1-0.1c0.1,0,0.2,0,0.2,0
                    	c1,0.3,2.1,0.1,3-0.4c1.3-0.6,2.2-2,2.2-3.4c0-1.2-0.7-1.8-2.3-1.8c-2.1,0-4-0.4-4-3.5c0-2.7,1.3-5.1,3.4-6.8v-2.5
                    	c0-0.3,0.2-0.6,0.4-0.8L51.3,50.1z"></path>
                </svg>